<svg width="2866" height="1109" viewBox="0 0 2866 1109" fill="none" xmlns="http://www.w3.org/2000/svg">
<path fill-rule="evenodd" clip-rule="evenodd" d="M-963 473.173L-775.833 571.751C-588.667 670.329 -214.333 867.484 160 867.484C534.333 867.484 908.667 670.329 1283 690.044C1657.33 709.76 2031.67 946.347 2406 1044.92C2780.33 1143.5 3154.67 1104.07 3341.83 1084.36L3529 1064.64V0H3341.83C3154.67 0 2780.33 0 2406 0C2031.67 0 1657.33 0 1283 0C908.667 0 534.333 0 160 0C-214.333 0 -588.667 0 -775.833 0H-963V473.173Z" fill="url(#paint0_linear)"/>
<defs>
<linearGradient id="paint0_linear" x1="1283" y1="0" x2="1283" y2="1700.97" gradientUnits="userSpaceOnUse">
<stop stop-color="#18784B"/>
<stop offset="1" stop-color="#285159"/>
</linearGradient>
</defs>
</svg>
