<svg width="921" height="857" viewBox="0 0 921 857" fill="none" xmlns="http://www.w3.org/2000/svg">
<path fill-rule="evenodd" clip-rule="evenodd" d="M486.367 59.0092C569.184 72.0337 659.925 56.3622 727.067 106.534C793.842 156.432 808.224 245.715 839.559 322.932C873.847 407.425 934.388 488.131 918.347 577.888C901.48 672.266 834.288 753.377 753.415 804.945C675.236 854.795 578.568 863.291 486.367 853.336C401.47 844.169 333.281 792.112 258.194 751.473C168.839 703.112 39.2072 689.583 6.28795 593.506C-26.5788 497.583 78.6402 411.821 108.628 314.961C139.28 215.959 97.6914 79.2082 183.522 21.0507C269.843 -37.4395 383.344 42.8067 486.367 59.0092Z" fill="url(#paint0_linear)"/>
<defs>
<linearGradient id="paint0_linear" x1="460.5" y1="0" x2="460.5" y2="857" gradientUnits="userSpaceOnUse">
<stop stop-color="#285159"/>
<stop offset="1" stop-color="#18784B"/>
</linearGradient>
</defs>
</svg>
