<svg width="953" height="895" viewBox="0 0 953 895" fill="none" xmlns="http://www.w3.org/2000/svg">
<path fill-rule="evenodd" clip-rule="evenodd" d="M475.314 3.45132C582.613 -3.13881 696.873 -6.51219 785.873 53.8217C876.168 115.033 940.11 218.082 951.953 326.57C962.899 426.841 885.306 509.2 845.71 601.96C810.72 683.928 804.004 782.673 733.824 837.566C662.725 893.178 565.079 900.959 475.314 891.676C391.899 883.05 326.119 828.766 252.913 787.835C167.268 739.949 49.2661 722.934 11.4823 632.337C-26.4665 541.346 39.2019 443.415 70.2428 349.838C101.048 256.971 116.93 153.911 191.271 90.3409C268.425 24.3643 374.014 9.67294 475.314 3.45132Z" fill="url(#paint0_linear)"/>
<defs>
<linearGradient id="paint0_linear" x1="476.5" y1="0" x2="476.5" y2="895" gradientUnits="userSpaceOnUse">
<stop stop-color="#285159"/>
<stop offset="1" stop-color="#18784B"/>
</linearGradient>
</defs>
</svg>
