<svg width="1746" height="1713" viewBox="0 0 1746 1713" fill="none" xmlns="http://www.w3.org/2000/svg">
<path d="M1623.41 963.312C1691.39 1115.4 1659.58 1235 1527.96 1322.14C1396.35 1409.27 1265.02 1471.58 1133.96 1509.05C1002.91 1546.52 894.834 1509.32 809.739 1397.44C724.644 1285.56 595.391 1207.83 421.98 1164.25C248.569 1120.68 166.185 1015.62 174.83 849.075C183.475 682.531 234.789 533.253 328.77 401.241C422.752 269.228 549.473 199.705 708.934 192.671C868.396 185.637 1027.34 195.043 1185.77 220.89C1344.2 246.736 1439.75 338.914 1472.42 497.423C1505.1 655.933 1555.43 811.229 1623.41 963.312Z" fill="url(#paint0_linear)"/>
<defs>
<linearGradient id="paint0_linear" x1="666.182" y1="190.749" x2="1026.55" y2="1537.85" gradientUnits="userSpaceOnUse">
<stop stop-color="#285159"/>
<stop offset="1" stop-color="#18784B"/>
</linearGradient>
</defs>
</svg>
