<svg width="936" height="668" viewBox="0 0 936 668" fill="none" xmlns="http://www.w3.org/2000/svg">
<path fill-rule="evenodd" clip-rule="evenodd" d="M506.941 -578.362C589.447 -596.198 675.765 -546.028 755.287 -497.883C825.178 -455.569 871.391 -381.458 931.755 -321.168C1017.44 -235.591 1145.52 -191.928 1182.71 -70.9916C1221.6 55.5202 1178.95 190.116 1120.76 293.557C1061.75 398.47 968.671 472.828 860.77 501.33C756.1 528.978 645.335 489.207 537.473 447.631C425.895 404.623 298.943 371.417 229.331 257.938C160.297 145.402 168.832 0.380826 184.959 -127.023C198.725 -235.777 254.607 -320.54 312.898 -402.25C366.543 -477.447 421.567 -559.906 506.941 -578.362Z" fill="url(#paint0_linear)"/>
<defs>
<linearGradient id="paint0_linear" x1="483.39" y1="-571.587" x2="837.705" y2="509.587" gradientUnits="userSpaceOnUse">
<stop stop-color="#18774B"/>
<stop offset="1" stop-color="#285159"/>
</linearGradient>
</defs>
</svg>
